<svg xmlns="http://www.w3.org/2000/svg" width="181" height="52" viewBox="0 0 181 52" fill="none"><path d="M179.25 46.0024C179.25 48.7735 176.959 51.0182 174.124 51.0182H6.38243C3.5495 51.0182 1.25 48.7735 1.25 46.0024V6.00284C1.25 3.23301 3.5495 0.980469 6.38243 0.980469H174.123C176.959 0.980469 179.249 3.23301 179.249 6.00284L179.25 46.0024Z" fill="black"></path><path d="M173.583 1.04162C176.67 1.04162 179.182 3.4905 179.182 6.5V45.5C179.182 48.5095 176.67 50.9584 173.583 50.9584H6.91667C3.83 50.9584 1.31833 48.5095 1.31833 45.5V6.5C1.31833 3.4905 3.83 1.04162 6.91667 1.04162H173.583ZM173.583 2.74817e-06H6.91667C3.25167 2.74817e-06 0.25 2.92663 0.25 6.5V45.5C0.25 49.0734 3.25167 52 6.91667 52H173.583C177.248 52 180.25 49.0734 180.25 45.5V6.5C180.25 2.92663 177.248 2.74817e-06 173.583 2.74817e-06Z" fill="#A6A6A6"></path><path d="M40.4207 25.7191C40.382 21.5292 43.9394 19.4908 44.102 19.3959C42.0874 16.532 38.9647 16.1407 37.8674 16.1095C35.2447 15.8404 32.7007 17.6396 31.3647 17.6396C30.002 17.6396 27.9447 16.1355 25.7274 16.1797C22.874 16.2226 20.2047 17.8333 18.7407 20.3345C15.7194 25.4344 17.9727 32.9289 20.8674 37.0512C22.3154 39.0701 24.0074 41.3243 26.222 41.245C28.3887 41.1579 29.198 39.8982 31.8127 39.8982C34.4034 39.8982 35.1634 41.245 37.422 41.1943C39.7474 41.1579 41.2114 39.1663 42.6087 37.1292C44.282 34.8152 44.954 32.5363 44.9807 32.4193C44.926 32.4011 40.4647 30.741 40.4207 25.7191Z" fill="white"></path><path d="M36.154 13.3977C37.3194 11.9768 38.1167 10.0437 37.8954 8.08203C36.2087 8.15483 34.0994 9.21953 32.8847 10.6092C31.81 11.8338 30.85 13.841 31.098 15.7286C32.9927 15.8664 34.938 14.7965 36.154 13.3977Z" fill="white"></path><path d="M71.7766 40.9567H68.7486L67.09 35.875H61.3246L59.7446 40.9567H56.7966L62.5086 23.6562H66.0366L71.7766 40.9567ZM66.59 33.743L65.09 29.2255C64.9313 28.764 64.634 27.6772 64.1953 25.9664H64.142C63.9673 26.7022 63.686 27.789 63.2993 29.2255L61.826 33.743H66.59Z" fill="white"></path><path d="M86.466 34.5667C86.466 36.6883 85.878 38.3653 84.702 39.5964C83.6487 40.6923 82.3407 41.2396 80.7793 41.2396C79.094 41.2396 77.8833 40.6494 77.146 39.469H77.0927V46.0405H74.25V32.5894C74.25 31.2556 74.214 29.8867 74.1447 28.4827H76.6447L76.8033 30.46H76.8567C77.8047 28.9702 79.2433 28.2266 81.174 28.2266C82.6833 28.2266 83.9433 28.8077 84.9513 29.9712C85.962 31.136 86.466 32.6674 86.466 34.5667ZM83.57 34.6681C83.57 33.4539 83.29 32.4529 82.7273 31.6651C82.1127 30.8435 81.2873 30.4327 80.2527 30.4327C79.5513 30.4327 78.914 30.6615 78.3447 31.1126C77.774 31.5676 77.4006 32.1617 77.226 32.8975C77.138 33.2407 77.094 33.5215 77.094 33.7425V35.8225C77.094 36.7299 77.3793 37.4956 77.95 38.1209C78.5207 38.7462 79.262 39.0582 80.174 39.0582C81.2447 39.0582 82.078 38.6552 82.674 37.8518C83.2713 37.0471 83.57 35.9863 83.57 34.6681Z" fill="white"></path><path d="M101.182 34.5667C101.182 36.6883 100.594 38.3653 99.4166 39.5964C98.3646 40.6923 97.0566 41.2396 95.4953 41.2396C93.8099 41.2396 92.5993 40.6494 91.8633 39.469H91.8099V46.0405H88.9673V32.5894C88.9673 31.2556 88.9313 29.8867 88.8619 28.4827H91.3619L91.5206 30.46H91.5739C92.5206 28.9702 93.9593 28.2266 95.8913 28.2266C97.3993 28.2266 98.6593 28.8077 99.6699 29.9712C100.677 31.136 101.182 32.6674 101.182 34.5667ZM98.2859 34.6681C98.2859 33.4539 98.0046 32.4529 97.4419 31.6651C96.8273 30.8435 96.0046 30.4327 94.9686 30.4327C94.2659 30.4327 93.6299 30.6615 93.0593 31.1126C92.4886 31.5676 92.1166 32.1617 91.9419 32.8975C91.8553 33.2407 91.8099 33.5215 91.8099 33.7425V35.8225C91.8099 36.7299 92.0953 37.4956 92.6633 38.1209C93.2339 38.7449 93.9753 39.0582 94.8899 39.0582C95.9606 39.0582 96.7939 38.6552 97.3899 37.8518C97.9873 37.0471 98.2859 35.9863 98.2859 34.6681Z" fill="white"></path><path d="M117.635 36.1046C117.635 37.5762 117.111 38.7735 116.059 39.6978C114.903 40.7079 113.294 41.2123 111.226 41.2123C109.317 41.2123 107.786 40.8535 106.627 40.1346L107.286 37.8245C108.534 38.5603 109.903 38.9295 111.395 38.9295C112.466 38.9295 113.299 38.6929 113.898 38.2223C114.494 37.7517 114.791 37.1199 114.791 36.3321C114.791 35.6301 114.546 35.0386 114.054 34.5589C113.565 34.0792 112.747 33.6333 111.606 33.2212C108.499 32.0915 106.947 30.4366 106.947 28.2604C106.947 26.8382 107.491 25.6721 108.581 24.7647C109.666 23.856 111.114 23.4023 112.925 23.4023C114.539 23.4023 115.881 23.6766 116.951 24.2239L116.241 26.4833C115.241 25.9529 114.11 25.6877 112.845 25.6877C111.845 25.6877 111.063 25.9282 110.503 26.4066C110.03 26.8343 109.793 27.3556 109.793 27.9731C109.793 28.6569 110.063 29.2224 110.607 29.667C111.081 30.0778 111.941 30.5224 113.189 31.0021C114.715 31.6014 115.837 32.3021 116.558 33.1055C117.277 33.9063 117.635 34.9086 117.635 36.1046Z" fill="white"></path><path d="M127.034 30.5633H123.901V36.62C123.901 38.1605 124.453 38.9301 125.559 38.9301C126.067 38.9301 126.489 38.8872 126.822 38.8014L126.901 40.9061C126.341 41.1102 125.603 41.2129 124.69 41.2129C123.567 41.2129 122.69 40.8788 122.057 40.2119C121.426 39.5437 121.109 38.4231 121.109 36.8488V30.5607H119.242V28.4807H121.109V26.1966L123.901 25.375V28.4807H127.034V30.5633Z" fill="white"></path><path d="M141.171 34.6161C141.171 36.5336 140.609 38.1079 139.486 39.339C138.309 40.6065 136.746 41.2383 134.798 41.2383C132.921 41.2383 131.426 40.6312 130.311 39.417C129.197 38.2028 128.639 36.6701 128.639 34.8228C128.639 32.8897 129.213 31.3063 130.363 30.0752C131.511 28.8428 133.061 28.2266 135.009 28.2266C136.886 28.2266 138.397 28.8337 139.537 30.0492C140.627 31.2283 141.171 32.7506 141.171 34.6161ZM138.222 34.7058C138.222 33.5553 137.97 32.5686 137.459 31.7457C136.863 30.7499 136.011 30.2533 134.907 30.2533C133.765 30.2533 132.897 30.7512 132.301 31.7457C131.79 32.5699 131.538 33.5722 131.538 34.7578C131.538 35.9083 131.79 36.895 132.301 37.7166C132.915 38.7124 133.774 39.209 134.882 39.209C135.967 39.209 136.819 38.702 137.434 37.6906C137.958 36.8521 138.222 35.855 138.222 34.7058Z" fill="white"></path><path d="M150.411 30.9202C150.13 30.8695 149.83 30.8435 149.515 30.8435C148.515 30.8435 147.742 31.2114 147.198 31.9485C146.725 32.5985 146.487 33.4201 146.487 34.412V40.9575H143.646L143.673 32.4113C143.673 30.9735 143.637 29.6644 143.566 28.484H146.042L146.146 30.8708H146.225C146.525 30.0505 146.998 29.3901 147.646 28.8948C148.279 28.4489 148.963 28.2266 149.701 28.2266C149.963 28.2266 150.201 28.2448 150.411 28.2773V30.9202Z" fill="white"></path><path d="M163.125 34.1298C163.125 34.6264 163.091 35.045 163.021 35.3869H154.493C154.526 36.6193 154.938 37.5618 155.73 38.2118C156.449 38.7929 157.378 39.0841 158.519 39.0841C159.782 39.0841 160.934 38.8878 161.97 38.4939L162.415 40.4179C161.205 40.9327 159.775 41.1888 158.126 41.1888C156.142 41.1888 154.585 40.6194 153.451 39.4819C152.321 38.3444 151.754 36.8169 151.754 34.9007C151.754 33.0196 152.281 31.4531 153.335 30.2038C154.439 28.87 155.931 28.2031 157.809 28.2031C159.653 28.2031 161.049 28.87 161.997 30.2038C162.747 31.2633 163.125 32.5737 163.125 34.1298ZM160.414 33.4109C160.433 32.5893 160.247 31.8795 159.862 31.2802C159.37 30.5093 158.614 30.1245 157.597 30.1245C156.667 30.1245 155.911 30.5002 155.334 31.2542C154.861 31.8535 154.579 32.5724 154.493 33.4096H160.414V33.4109Z" fill="white"></path><path d="M65.65 13.0142C65.65 14.5443 65.1793 15.6961 64.2393 16.4696C63.3686 17.1833 62.1313 17.5408 60.5286 17.5408C59.734 17.5408 59.054 17.507 58.4846 17.4394V9.07914C59.2273 8.96214 60.0273 8.90234 60.8913 8.90234C62.418 8.90234 63.5686 9.22604 64.3446 9.87344C65.214 10.6053 65.65 11.6518 65.65 13.0142ZM64.1766 13.0519C64.1766 12.06 63.9073 11.2995 63.3686 10.7691C62.83 10.24 62.0433 9.97484 61.0073 9.97484C60.5673 9.97484 60.1926 10.0034 59.882 10.0632V16.4189C60.054 16.4449 60.3686 16.4566 60.826 16.4566C61.8953 16.4566 62.7206 16.1667 63.302 15.5869C63.8833 15.0071 64.1766 14.1621 64.1766 13.0519Z" fill="white"></path><path d="M73.4619 14.3491C73.4619 15.2916 73.1859 16.0638 72.6339 16.6696C72.0552 17.2923 71.2886 17.603 70.3312 17.603C69.4086 17.603 68.6739 17.3053 68.1259 16.7073C67.5792 16.1106 67.3059 15.3579 67.3059 14.4505C67.3059 13.5015 67.5872 12.7228 68.1526 12.1183C68.7179 11.5138 69.4779 11.2109 70.4352 11.2109C71.3579 11.2109 72.0992 11.5086 72.6606 12.1053C73.1939 12.6851 73.4619 13.4339 73.4619 14.3491ZM72.0126 14.3933C72.0126 13.8278 71.8872 13.3429 71.6379 12.9386C71.3446 12.4498 70.9272 12.2054 70.3846 12.2054C69.8232 12.2054 69.3966 12.4498 69.1032 12.9386C68.8526 13.3429 68.7286 13.8356 68.7286 14.418C68.7286 14.9835 68.8539 15.4684 69.1032 15.8727C69.4059 16.3615 69.8272 16.6059 70.3712 16.6059C70.9046 16.6059 71.3232 16.3576 71.6246 15.8597C71.8832 15.4476 72.0126 14.9588 72.0126 14.3933Z" fill="white"></path><path d="M83.9366 11.3359L81.97 17.4641H80.69L79.8753 14.803C79.6686 14.1387 79.5006 13.4783 79.37 12.8231H79.3446C79.2233 13.4965 79.0553 14.1556 78.8393 14.803L77.974 17.4641H76.6793L74.83 11.3359H76.266L76.9766 14.2492C77.1486 14.9382 77.29 15.5947 77.4033 16.2161H77.4286C77.5326 15.7039 77.7046 15.0513 77.9473 14.2622L78.8393 11.3372H79.978L80.8326 14.1998C81.0393 14.8979 81.2073 15.57 81.3366 16.2174H81.3753C81.47 15.5869 81.6126 14.9148 81.802 14.1998L82.5646 11.3372H83.9366V11.3359Z" fill="white"></path><path d="M91.1806 17.4639H89.7833V13.9539C89.7833 12.8723 89.3619 12.3315 88.5166 12.3315C88.1019 12.3315 87.7673 12.4797 87.5073 12.7774C87.2499 13.0751 87.1193 13.4261 87.1193 13.8278V17.4626H85.7219V13.0868C85.7219 12.5486 85.7046 11.9649 85.6713 11.3331H86.8993L86.9646 12.2912H87.0033C87.1659 11.9935 87.4086 11.7478 87.7273 11.5515C88.1059 11.3227 88.5299 11.207 88.9939 11.207C89.5806 11.207 90.0686 11.3916 90.4566 11.7621C90.9392 12.2158 91.1806 12.8931 91.1806 13.7927V17.4639Z" fill="white"></path><path d="M95.0339 17.4635H93.6379V8.52344H95.0339V17.4635Z" fill="white"></path><path d="M103.261 14.3491C103.261 15.2916 102.985 16.0638 102.433 16.6696C101.854 17.2923 101.086 17.603 100.13 17.603C99.206 17.603 98.4713 17.3053 97.9246 16.7073C97.3779 16.1106 97.1046 15.3579 97.1046 14.4505C97.1046 13.5015 97.386 12.7228 97.9513 12.1183C98.5166 11.5138 99.2766 11.2109 100.233 11.2109C101.157 11.2109 101.897 11.5086 102.459 12.1053C102.993 12.6851 103.261 13.4339 103.261 14.3491ZM101.81 14.3933C101.81 13.8278 101.685 13.3429 101.435 12.9386C101.143 12.4498 100.725 12.2054 100.183 12.2054C99.6206 12.2054 99.1939 12.4498 98.9019 12.9386C98.6513 13.3429 98.5273 13.8356 98.5273 14.418C98.5273 14.9835 98.6526 15.4684 98.9019 15.8727C99.2046 16.3615 99.626 16.6059 100.17 16.6059C100.703 16.6059 101.121 16.3576 101.422 15.8597C101.682 15.4476 101.81 14.9588 101.81 14.3933Z" fill="white"></path><path d="M110.023 17.4639H108.769L108.665 16.758H108.626C108.197 17.3209 107.585 17.603 106.79 17.603C106.197 17.603 105.717 17.4171 105.355 17.0479C105.027 16.7125 104.863 16.2952 104.863 15.7999C104.863 15.0511 105.183 14.4804 105.827 14.0852C106.47 13.69 107.374 13.4963 108.538 13.5054V13.391C108.538 12.5837 108.103 12.1807 107.233 12.1807C106.613 12.1807 106.066 12.3328 105.594 12.6344L105.31 11.74C105.894 11.3877 106.615 11.2109 107.466 11.2109C109.109 11.2109 109.933 12.0559 109.933 13.7459V16.0027C109.933 16.615 109.963 17.1025 110.023 17.4639ZM108.573 15.3579V14.4128C107.031 14.3868 106.261 14.7989 106.261 15.6478C106.261 15.9676 106.349 16.2068 106.529 16.3667C106.709 16.5266 106.938 16.6059 107.211 16.6059C107.518 16.6059 107.805 16.511 108.066 16.3225C108.329 16.1327 108.49 15.8922 108.55 15.5971C108.565 15.5308 108.573 15.4502 108.573 15.3579Z" fill="white"></path><path d="M117.963 17.4635H116.723L116.658 16.4794H116.619C116.223 17.2282 115.549 17.6026 114.601 17.6026C113.843 17.6026 113.213 17.3127 112.713 16.7329C112.213 16.1531 111.963 15.4004 111.963 14.4761C111.963 13.4842 112.234 12.6808 112.778 12.0672C113.305 11.4952 113.95 11.2092 114.718 11.2092C115.562 11.2092 116.153 11.4861 116.489 12.0412H116.515V8.52344H117.914V15.8125C117.914 16.4092 117.93 16.9591 117.963 17.4635ZM116.515 14.8791V13.8573C116.515 13.6805 116.502 13.5375 116.477 13.4283C116.398 13.1007 116.229 12.8251 115.971 12.6028C115.711 12.3805 115.398 12.2687 115.037 12.2687C114.515 12.2687 114.107 12.4702 113.807 12.8745C113.51 13.2788 113.359 13.7949 113.359 14.4254C113.359 15.0312 113.502 15.5226 113.789 15.9009C114.091 16.3039 114.499 16.5054 115.01 16.5054C115.469 16.5054 115.835 16.3377 116.114 16.001C116.383 15.6903 116.515 15.3159 116.515 14.8791Z" fill="white"></path><path d="M129.914 14.3491C129.914 15.2916 129.638 16.0638 129.086 16.6696C128.507 17.2923 127.742 17.603 126.783 17.603C125.862 17.603 125.127 17.3053 124.578 16.7073C124.031 16.1106 123.758 15.3579 123.758 14.4505C123.758 13.5015 124.039 12.7228 124.605 12.1183C125.17 11.5138 125.93 11.2109 126.889 11.2109C127.81 11.2109 128.553 11.5086 129.113 12.1053C129.646 12.6851 129.914 13.4339 129.914 14.3491ZM128.466 14.3933C128.466 13.8278 128.341 13.3429 128.091 12.9386C127.797 12.4498 127.381 12.2054 126.837 12.2054C126.277 12.2054 125.85 12.4498 125.555 12.9386C125.305 13.3429 125.181 13.8356 125.181 14.418C125.181 14.9835 125.306 15.4684 125.555 15.8727C125.858 16.3615 126.279 16.6059 126.823 16.6059C127.357 16.6059 127.777 16.3576 128.078 15.8597C128.335 15.4476 128.466 14.9588 128.466 14.3933Z" fill="white"></path><path d="M137.427 17.4639H136.031V13.9539C136.031 12.8723 135.61 12.3315 134.763 12.3315C134.349 12.3315 134.014 12.4797 133.755 12.7774C133.497 13.0751 133.367 13.4261 133.367 13.8278V17.4626H131.969V13.0868C131.969 12.5486 131.953 11.9649 131.919 11.3331H133.146L133.211 12.2912H133.25C133.414 11.9935 133.657 11.7478 133.974 11.5515C134.354 11.3227 134.777 11.207 135.242 11.207C135.827 11.207 136.315 11.3916 136.703 11.7621C137.187 12.2158 137.427 12.8931 137.427 13.7927V17.4639Z" fill="white"></path><path d="M146.831 12.3553H145.293V15.3323C145.293 16.0889 145.566 16.4672 146.107 16.4672C146.358 16.4672 146.566 16.4464 146.73 16.4035L146.766 17.437C146.49 17.5384 146.127 17.5891 145.681 17.5891C145.129 17.5891 144.699 17.4253 144.389 17.0977C144.077 16.7701 143.922 16.2189 143.922 15.4454V12.3553H143.003V11.3348H143.922V10.2116L145.291 9.80859V11.3335H146.83V12.3553H146.831Z" fill="white"></path><path d="M154.229 17.4635H152.83V13.9795C152.83 12.881 152.409 12.3311 151.565 12.3311C150.917 12.3311 150.474 12.6496 150.231 13.2866C150.19 13.4205 150.166 13.5843 150.166 13.7767V17.4622H148.77V8.52344H150.166V12.2167H150.193C150.633 11.5446 151.263 11.2092 152.081 11.2092C152.659 11.2092 153.138 11.3938 153.518 11.7643C153.991 12.2258 154.229 12.9122 154.229 13.8196V17.4635Z" fill="white"></path><path d="M161.859 14.1099C161.859 14.3543 161.841 14.5597 161.807 14.7274H157.617C157.635 15.3332 157.835 15.7947 158.223 16.1145C158.578 16.4005 159.035 16.5435 159.595 16.5435C160.215 16.5435 160.781 16.4473 161.29 16.2536L161.509 17.2C160.913 17.4522 160.211 17.5783 159.399 17.5783C158.426 17.5783 157.659 17.2988 157.105 16.7398C156.547 16.1808 156.271 15.4307 156.271 14.4895C156.271 13.5652 156.529 12.7956 157.047 12.182C157.589 11.5268 158.321 11.1992 159.245 11.1992C160.149 11.1992 160.835 11.5268 161.299 12.182C161.674 12.702 161.859 13.3455 161.859 14.1099ZM160.526 13.7576C160.537 13.3533 160.445 13.0049 160.255 12.7111C160.013 12.3328 159.643 12.143 159.143 12.143C158.687 12.143 158.315 12.3276 158.031 12.6981C157.799 12.9932 157.662 13.3455 157.617 13.7576H160.526Z" fill="white"></path></svg>