<svg xmlns="http://www.w3.org/2000/svg" width="180" height="52" viewBox="0 0 180 52" fill="none"><path d="M173.345 52H6.9075C3.24754 52 0.25 49.0734 0.25 45.5V6.5C0.25 2.92663 3.24754 2.74817e-06 6.9075 2.74817e-06H173.345C177.005 2.74817e-06 180.003 2.92663 180.003 6.5V45.5C180.003 49.0734 177.005 52 173.345 52Z" fill="black"></path><path d="M173.345 1.04162C176.427 1.04162 178.936 3.4905 178.936 6.5V45.5C178.936 48.5095 176.427 50.9584 173.345 50.9584H6.9075C3.82508 50.9584 1.31686 48.5095 1.31686 45.5V6.5C1.31686 3.4905 3.82508 1.04162 6.9075 1.04162H173.345ZM173.345 2.74817e-06H6.9075C3.24754 2.74817e-06 0.25 2.92663 0.25 6.5V45.5C0.25 49.0734 3.24754 52 6.9075 52H173.345C177.005 52 180.003 49.0734 180.003 45.5V6.5C180.003 2.92663 177.005 2.74817e-06 173.345 2.74817e-06Z" fill="#A6A6A6"></path><path d="M63.3865 13.3182C63.3865 14.4037 63.0536 15.273 62.3978 15.9214C61.6439 16.69 60.6619 17.0768 59.4585 17.0768C58.3085 17.0768 57.3265 16.6835 56.5209 15.9084C55.7137 15.1219 55.3109 14.1567 55.3109 13.0013C55.3109 11.8459 55.7137 10.8807 56.5209 10.1007C57.3265 9.31903 58.3085 8.92578 59.4585 8.92578C60.0311 8.92578 60.577 9.04116 61.0979 9.25566C61.6172 9.47178 62.04 9.76428 62.3462 10.125L61.6505 10.8108C61.1163 10.1949 60.3889 9.89103 59.4585 9.89103C58.6197 9.89103 57.8924 10.177 57.2749 10.7539C56.6641 11.3324 56.3578 12.0815 56.3578 13.0013C56.3578 13.921 56.6641 14.6767 57.2749 15.2552C57.8924 15.8255 58.6197 16.118 59.4585 16.118C60.349 16.118 61.0979 15.8255 61.6888 15.2487C62.0783 14.8668 62.2996 14.3403 62.3579 13.6675H59.4585V12.7283H63.3265C63.3731 12.9314 63.3865 13.128 63.3865 13.3182Z" fill="white" stroke="white" stroke-width="0.16" stroke-miterlimit="10"></path><path d="M69.523 10.0587H65.8897V12.5287H69.1652V13.4679H65.8897V15.9379H69.523V16.8951H64.8611V9.10156H69.523V10.0587Z" fill="white" stroke="white" stroke-width="0.16" stroke-miterlimit="10"></path><path d="M73.8536 16.8951H72.825V10.0587H70.5964V9.10156H76.0839V10.0587H73.8536V16.8951Z" fill="white" stroke="white" stroke-width="0.16" stroke-miterlimit="10"></path><path d="M80.0552 16.8951V9.10156H81.0821V16.8951H80.0552Z" fill="white" stroke="white" stroke-width="0.16" stroke-miterlimit="10"></path><path d="M85.6341 16.8951H84.6139V10.0587H82.377V9.10156H87.871V10.0587H85.6341V16.8951Z" fill="white" stroke="white" stroke-width="0.16" stroke-miterlimit="10"></path><path d="M98.2601 15.8954C97.4728 16.6835 96.4975 17.0768 95.3341 17.0768C94.164 17.0768 93.1887 16.6835 92.4014 15.8954C91.6159 15.1089 91.2247 14.1437 91.2247 13.0013C91.2247 11.8589 91.6159 10.8937 92.4014 10.1072C93.1887 9.31903 94.164 8.92578 95.3341 8.92578C96.4908 8.92578 97.4661 9.31903 98.2534 10.1137C99.0456 10.9067 99.4368 11.8654 99.4368 13.0013C99.4368 14.1437 99.0456 15.1089 98.2601 15.8954ZM93.1621 15.2422C93.7546 15.8255 94.4753 16.118 95.3341 16.118C96.1862 16.118 96.9136 15.8255 97.4994 15.2422C98.0903 14.6588 98.3899 13.9097 98.3899 13.0013C98.3899 12.0929 98.0903 11.3438 97.4994 10.7604C96.9136 10.177 96.1862 9.88453 95.3341 9.88453C94.4753 9.88453 93.7546 10.177 93.1621 10.7604C92.5712 11.3438 92.2716 12.0929 92.2716 13.0013C92.2716 13.9097 92.5712 14.6588 93.1621 15.2422Z" fill="white" stroke="white" stroke-width="0.16" stroke-miterlimit="10"></path><path d="M100.88 16.8951V9.10156H102.128L106.009 15.1628H106.054L106.009 13.6646V9.10156H107.036V16.8951H105.964L101.9 10.5348H101.855L101.9 12.0396V16.8951H100.88Z" fill="white" stroke="white" stroke-width="0.16" stroke-miterlimit="10"></path><path d="M90.9718 28.2783C87.8444 28.2783 85.2896 30.602 85.2896 33.8082C85.2896 36.9883 87.8444 39.3364 90.9718 39.3364C94.1058 39.3364 96.6606 36.9883 96.6606 33.8082C96.6606 30.602 94.1058 28.2783 90.9718 28.2783ZM90.9718 37.1589C89.2558 37.1589 87.7795 35.776 87.7795 33.8082C87.7795 31.8143 89.2558 30.4558 90.9718 30.4558C92.6877 30.4558 94.1707 31.8143 94.1707 33.8082C94.1707 35.776 92.6877 37.1589 90.9718 37.1589ZM78.5738 28.2783C75.4398 28.2783 72.8917 30.602 72.8917 33.8082C72.8917 36.9883 75.4398 39.3364 78.5738 39.3364C81.7062 39.3364 84.256 36.9883 84.256 33.8082C84.256 30.602 81.7062 28.2783 78.5738 28.2783ZM78.5738 37.1589C76.8562 37.1589 75.3749 35.776 75.3749 33.8082C75.3749 31.8143 76.8562 30.4558 78.5738 30.4558C80.2898 30.4558 81.7661 31.8143 81.7661 33.8082C81.7661 35.776 80.2898 37.1589 78.5738 37.1589ZM63.8208 29.9732V32.3229H69.5679C69.3998 33.6359 68.9504 34.6012 68.2614 35.2739C67.4225 36.0864 66.116 36.9883 63.8208 36.9883C60.284 36.9883 57.5145 34.2014 57.5145 30.7483C57.5145 27.2952 60.284 24.5083 63.8208 24.5083C65.7332 24.5083 67.1246 25.2379 68.1515 26.1837L69.8475 24.5278C68.4112 23.1888 66.5005 22.1602 63.8208 22.1602C58.9708 22.1602 54.8948 26.013 54.8948 30.7483C54.8948 35.4835 58.9708 39.3364 63.8208 39.3364C66.4422 39.3364 68.4112 38.4979 69.959 36.9249C71.5452 35.3763 72.0395 33.1988 72.0395 31.4405C72.0395 30.8945 71.9929 30.3924 71.9097 29.9732H63.8208ZM124.148 31.7948C123.68 30.5582 122.237 28.2783 119.298 28.2783C116.385 28.2783 113.96 30.5192 113.96 33.8082C113.96 36.9054 116.36 39.3364 119.577 39.3364C122.179 39.3364 123.68 37.7878 124.298 36.8859L122.367 35.6298C121.723 36.5495 120.846 37.1589 119.577 37.1589C118.317 37.1589 117.414 36.595 116.834 35.4835L124.409 32.4237L124.148 31.7948ZM116.425 33.6359C116.36 31.5039 118.121 30.4119 119.383 30.4119C120.371 30.4119 121.21 30.8945 121.49 31.5852L116.425 33.6359ZM110.269 39H112.758V22.75H110.269V39ZM106.191 29.51H106.108C105.548 28.8633 104.482 28.2783 103.13 28.2783C100.294 28.2783 97.7008 30.7093 97.7008 33.826C97.7008 36.9249 100.294 39.3364 103.13 39.3364C104.482 39.3364 105.548 38.7465 106.108 38.0803H106.191V38.8733C106.191 40.9874 105.034 42.1233 103.168 42.1233C101.647 42.1233 100.703 41.0508 100.314 40.1489L98.1486 41.0313C98.7727 42.497 100.425 44.3008 103.168 44.3008C106.088 44.3008 108.551 42.6238 108.551 38.5434V28.6147H106.191V29.51ZM103.343 37.1589C101.627 37.1589 100.191 35.7565 100.191 33.826C100.191 31.8777 101.627 30.4558 103.343 30.4558C105.034 30.4558 106.367 31.8777 106.367 33.826C106.367 35.7565 105.034 37.1589 103.343 37.1589ZM135.805 22.75H129.85V39H132.333V32.8429H135.805C138.563 32.8429 141.268 30.8945 141.268 27.7957C141.268 24.6984 138.556 22.75 135.805 22.75ZM135.87 30.5825H132.333V25.0104H135.87C137.724 25.0104 138.783 26.5135 138.783 27.7957C138.783 29.0534 137.724 30.5825 135.87 30.5825ZM151.22 28.2474C149.426 28.2474 147.561 29.0209 146.793 30.7353L148.997 31.6372C149.471 30.7353 150.343 30.4428 151.265 30.4428C152.554 30.4428 153.86 31.1984 153.88 32.5325V32.7032C153.431 32.4497 152.469 32.0743 151.285 32.0743C148.912 32.0743 146.494 33.3499 146.494 35.7305C146.494 37.908 148.438 39.3104 150.623 39.3104C152.294 39.3104 153.216 38.5743 153.795 37.7179H153.88V38.974H156.279V32.7405C156.279 29.8594 154.075 28.2474 151.22 28.2474ZM150.921 37.1524C150.109 37.1524 148.977 36.7592 148.977 35.776C148.977 34.5183 150.388 34.0357 151.61 34.0357C152.703 34.0357 153.216 34.2713 153.88 34.5817C153.685 36.0864 152.359 37.1524 150.921 37.1524ZM165.016 28.6033L162.162 35.6477H162.077L159.126 28.6033H156.448L160.882 38.4475L158.352 43.9254H160.947L167.779 28.6033H165.016ZM142.632 39H145.122V22.75H142.632V39Z" fill="white"></path><path d="M14.1442 9.79947C13.7531 10.1992 13.5267 10.8216 13.5267 11.6276V40.3771C13.5267 41.1831 13.7531 41.8055 14.1442 42.2052L14.2408 42.293L30.7414 26.1892V25.809L14.2408 9.70522L14.1442 9.79947Z" fill="url(#paint0_linear_2121_1172)"></path><path d="M36.2354 31.5625L30.7413 26.1919V25.8116L36.2421 20.441L36.3653 20.5109L42.8796 24.1298C44.7387 25.1567 44.7387 26.8468 42.8796 27.8803L36.3653 31.4926L36.2354 31.5625Z" fill="url(#paint1_linear_2121_1172)"></path><path d="M36.3652 31.4922L30.7413 26.0013L14.1442 42.2074C14.7616 42.8412 15.7686 42.9176 16.9137 42.2838L36.3652 31.4922Z" fill="url(#paint2_linear_2121_1172)"></path><path d="M36.3652 20.5091L16.9137 9.71751C15.7686 9.09025 14.7616 9.16663 14.1442 9.80038L30.7413 26L36.3652 20.5091Z" fill="url(#paint3_linear_2121_1172)"></path><defs><linearGradient id="paint0_linear_2121_1172" x1="29.2763" y1="40.6765" x2="7.46544" y2="18.3371" gradientUnits="userSpaceOnUse"><stop stop-color="#00A0FF"></stop><stop offset="0.0066" stop-color="#00A1FF"></stop><stop offset="0.2601" stop-color="#00BEFF"></stop><stop offset="0.5122" stop-color="#00D2FF"></stop><stop offset="0.7604" stop-color="#00DFFF"></stop><stop offset="1" stop-color="#00E3FF"></stop></linearGradient><linearGradient id="paint1_linear_2121_1172" x1="45.3005" y1="25.9999" x2="13.0823" y2="25.9999" gradientUnits="userSpaceOnUse"><stop stop-color="#FFE000"></stop><stop offset="0.4087" stop-color="#FFBD00"></stop><stop offset="0.7754" stop-color="#FFA500"></stop><stop offset="1" stop-color="#FF9C00"></stop></linearGradient><linearGradient id="paint2_linear_2121_1172" x1="33.3071" y1="23.0164" x2="3.72981" y2="-7.27762" gradientUnits="userSpaceOnUse"><stop stop-color="#FF3A44"></stop><stop offset="1" stop-color="#C31162"></stop></linearGradient><linearGradient id="paint3_linear_2121_1172" x1="9.96632" y1="51.7709" x2="23.1739" y2="38.2434" gradientUnits="userSpaceOnUse"><stop stop-color="#32A071"></stop><stop offset="0.0685" stop-color="#2DA771"></stop><stop offset="0.4762" stop-color="#15CF74"></stop><stop offset="0.8009" stop-color="#06E775"></stop><stop offset="1" stop-color="#00F076"></stop></linearGradient></defs></svg>