<svg xmlns="http://www.w3.org/2000/svg" width="264" height="188" viewBox="0 0 264 188" fill="none"><path d="M94.5 65.6562H75.8869C84.5934 40.4422 92.0278 28.3672 116.766 18.0584C120.894 16.3372 123.23 11.9431 122.35 7.5575C121.472 3.18031 117.626 0.03125 113.158 0.03125H113.139C61.5309 0.123125 31.8862 20.8138 10.8656 71.3872C4.15594 87.2722 0.75 104.273 0.75 121.906C0.75 149.024 8.95313 163.792 21.4594 183.228C23.1806 185.91 26.1562 187.531 29.3419 187.531H94.5C110.009 187.531 122.625 174.915 122.625 159.406V93.7812C122.625 78.2722 110.009 65.6562 94.5 65.6562Z" fill="#E5EEF8"></path><path d="M235.125 65.6562H216.512C225.218 40.4422 232.653 28.3672 257.391 18.0584C261.519 16.3372 263.855 11.9431 262.975 7.5575C262.097 3.18031 258.251 0.03125 253.783 0.03125H253.764C202.156 0.123125 172.511 20.8138 151.491 71.3872C144.781 87.2722 141.375 104.273 141.375 121.906C141.375 149.024 149.578 163.792 162.084 183.228C163.806 185.91 166.781 187.531 169.967 187.531H235.125C250.634 187.531 263.25 174.915 263.25 159.406V93.7812C263.25 78.2722 250.634 65.6562 235.125 65.6562Z" fill="#E5EEF8"></path></svg>