<svg xmlns="http://www.w3.org/2000/svg" width="264" height="188" viewBox="0 0 264 188" fill="none"><path d="M169.5 121.891H188.113C179.407 147.105 171.972 159.18 147.234 169.488C143.106 171.21 140.77 175.604 141.65 179.989C142.528 184.367 146.374 187.516 150.842 187.516H150.861C202.469 187.424 232.114 166.733 253.134 116.16C259.844 100.275 263.25 83.2741 263.25 65.6406C263.25 38.5225 255.047 23.755 242.541 4.31875C240.819 1.63656 237.844 0.015625 234.658 0.015625H169.5C153.991 0.015625 141.375 12.6316 141.375 28.1406V93.7656C141.375 109.275 153.991 121.891 169.5 121.891Z" fill="#E5EEF8"></path><path d="M28.875 121.891H47.4881C38.7816 147.105 31.3472 159.18 6.60938 169.488C2.48062 171.21 0.145319 175.604 1.02469 179.989C1.90313 184.367 5.74875 187.516 10.2169 187.516H10.2356C61.8441 187.424 91.4887 166.733 112.509 116.16C119.219 100.275 122.625 83.2741 122.625 65.6406C122.625 38.5225 114.422 23.755 101.916 4.31875C100.194 1.63656 97.2187 0.015625 94.0331 0.015625H28.875C13.3659 0.015625 0.75 12.6316 0.75 28.1406V93.7656C0.75 109.275 13.3659 121.891 28.875 121.891Z" fill="#E5EEF8"></path></svg>